<svg xmlns="http://www.w3.org/2000/svg" version="1.0" preserveAspectRatio="xMidYMid meet" viewBox="15.36 3.28 267.64 273.72"><g transform="translate(0.000000,293.000000) scale(0.100000,-0.100000)" fill="#50fa7b" stroke="none"><path d="M1360 2889 c-277 -32 -547 -161 -782 -376 -249 -227 -384 -510 -419 -879 -30 -325 67 -669 265 -931 136 -180 289 -305 501 -409 152 -74 221 -98 340 -119 115 -20 355 -20 471 0 179 32 404 126 539 227 106 79 272 252 340 352 l59 89 -23 16 c-82 56 -286 181 -296 181 -7 0 -54 -51 -104 -114 -99 -124 -130 -154 -218 -214 -85 -57 -170 -98 -270 -129 -80 -25 -103 -27 -258 -27 -192 -1 -243 9 -381 74 -222 103 -381 257 -480 465 -58 121 -84 225 -91 366 -25 511 313 940 811 1028 86 16 211 13 307 -5 246 -46 501 -224 631 -439 18 -30 36 -55 39 -55 5 0 296 183 327 206 7 5 -22 51 -88 139 -298 400 -754 607 -1220 554z"></path><path d="M1413 1885 c-121 -33 -221 -114 -269 -218 -26 -56 -29 -72 -29 -167 0 -97 2 -110 31 -170 72 -151 215 -231 386 -217 324 27 469 409 250 657 -47 54 -115 93 -197 115 -71 18 -104 18 -172 0z"></path><path d="M2160 1505 l0 -185 335 0 335 0 0 185 0 185 -335 0 -335 0 0 -185z"></path></g></svg>